<svg xmlns="http://www.w3.org/2000/svg" xmlns:xlink="http://www.w3.org/1999/xlink" width="2000" zoomAndPan="magnify" viewBox="0 0 1500 1499.999933" height="2000" preserveAspectRatio="xMidYMid meet" version="1.0"><defs><clipPath id="f693b98aa1"><path d="M 46.695312 37 L 1459.695312 37 L 1459.695312 1456.832031 L 46.695312 1456.832031 Z M 46.695312 37 " clip-rule="nonzero"/></clipPath></defs><g clip-path="url(#f693b98aa1)"><path fill="#ffffff" d="M 1253.679688 243.3125 C 1120.871094 110.390625 944.265625 37.050781 756.074219 37.050781 C 368.324219 37.050781 52.734375 352.515625 52.59375 740.335938 C 52.59375 864.273438 84.953125 985.335938 146.511719 1091.941406 L 46.695312 1456.390625 L 419.636719 1358.558594 C 522.398438 1414.632812 638.078125 1444.109375 755.792969 1444.179688 L 756.074219 1444.179688 C 1143.753906 1444.179688 1459.414062 1128.644531 1459.484375 740.894531 C 1459.484375 552.953125 1386.484375 376.304688 1253.609375 243.3125 Z M 756.074219 1325.433594 L 755.863281 1325.433594 C 650.996094 1325.433594 548.019531 1297.222656 458.242188 1243.953125 L 436.902344 1231.25 L 215.582031 1289.289062 L 274.617188 1073.554688 L 260.71875 1051.445312 C 202.175781 958.386719 171.289062 850.800781 171.359375 740.335938 C 171.5 418.0625 433.816406 155.796875 756.285156 155.796875 C 912.464844 155.796875 1059.242188 216.714844 1169.65625 327.25 C 1280.070312 437.714844 1340.789062 584.601562 1340.71875 740.824219 C 1340.578125 1063.167969 1078.265625 1325.433594 756.003906 1325.433594 Z M 1076.789062 887.644531 C 1059.242188 878.871094 972.832031 836.34375 956.6875 830.515625 C 940.542969 824.621094 928.890625 821.746094 917.167969 839.289062 C 905.445312 856.90625 871.753906 896.488281 861.503906 908.207031 C 851.257812 919.925781 841.007812 921.402344 823.390625 912.558594 C 805.84375 903.785156 749.195312 885.1875 682.019531 825.324219 C 629.796875 778.722656 594.488281 721.175781 584.242188 703.558594 C 573.992188 685.945312 583.1875 676.46875 591.960938 667.695312 C 599.824219 659.835938 609.511719 647.132812 618.355469 636.886719 C 627.128906 626.640625 630.078125 619.273438 635.902344 607.550781 C 641.800781 595.832031 638.851562 585.585938 634.429688 576.742188 C 630.007812 567.96875 594.910156 481.4375 580.238281 446.277344 C 565.988281 412.027344 551.460938 416.660156 540.71875 416.097656 C 530.472656 415.605469 518.75 415.464844 507.027344 415.464844 C 495.304688 415.464844 476.28125 419.816406 460.136719 437.433594 C 443.992188 455.046875 398.648438 497.578125 398.648438 584.042969 C 398.648438 670.503906 461.613281 754.089844 470.457031 765.878906 C 479.230469 777.601562 594.417969 955.089844 770.746094 1031.234375 C 812.652344 1049.339844 845.429688 1060.148438 870.980469 1068.289062 C 913.097656 1081.695312 951.425781 1079.800781 981.675781 1075.238281 C 1015.441406 1070.183594 1085.632812 1032.707031 1100.304688 991.652344 C 1114.976562 950.597656 1114.976562 915.4375 1110.554688 908.066406 C 1106.132812 900.699219 1094.410156 896.347656 1076.859375 887.503906 Z M 1076.789062 887.644531 " fill-opacity="1" fill-rule="evenodd"/></g></svg>